<svg xmlns="http://www.w3.org/2000/svg" width="18" height="18" fill="none"><path fill="#000" d="M17.171 4.937a6.395 6.395 0 0 1-1.843.505 3.216 3.216 0 0 0 1.41-1.775 6.423 6.423 0 0 1-2.037.779 3.21 3.21 0 0 0-5.468 2.927A9.11 9.11 0 0 1 2.62 4.02a3.208 3.208 0 0 0 .993 4.284 3.197 3.197 0 0 1-1.453-.402v.041a3.211 3.211 0 0 0 2.574 3.147 3.22 3.22 0 0 1-1.45.055 3.213 3.213 0 0 0 2.998 2.228 6.437 6.437 0 0 1-4.751 1.329 9.082 9.082 0 0 0 4.919 1.442c5.903 0 9.13-4.89 9.13-9.13a9.23 9.23 0 0 0-.009-.416 6.514 6.514 0 0 0 1.601-1.661Z"/></svg>