<svg xmlns="http://www.w3.org/2000/svg" width="16" height="17" fill="none"><path fill="#000" d="M7.952 4.302A4.071 4.071 0 0 0 3.89 8.365a4.051 4.051 0 0 0 4.063 4.064 4.071 4.071 0 0 0 4.064-4.064c0-2.222-1.841-4.063-4.064-4.063Zm0 6.666A2.615 2.615 0 0 1 5.35 8.365a2.615 2.615 0 0 1 2.603-2.603 2.615 2.615 0 0 1 2.604 2.603 2.615 2.615 0 0 1-2.604 2.603ZM12.175 5.127a.92.92 0 1 0 0-1.841.92.92 0 0 0 0 1.841Z"/><path fill="#000" d="M14.556 1.825c-.826-.857-2-1.301-3.334-1.301h-6.54C1.922.524.08 2.365.08 5.127v6.508c0 1.365.445 2.54 1.334 3.397.857.825 2 1.238 3.301 1.238h6.476c1.366 0 2.508-.445 3.334-1.238.857-.826 1.301-2 1.301-3.365v-6.54c0-1.333-.444-2.476-1.27-3.302Zm-.19 9.842c0 .984-.287 1.777-.858 2.317-.571.54-1.365.825-2.317.825H4.713c-.952 0-1.746-.285-2.317-.825-.572-.571-.857-1.365-.857-2.35V5.128c0-.952.285-1.746.857-2.317.54-.54 1.365-.826 2.317-.826h6.54c.952 0 1.746.286 2.317.857.54.572.858 1.365.858 2.286v6.54h-.064Z"/></svg>